<mxfile modified="2021-01-21T08:56:03.386Z" host="app.diagrams.net" agent="5.0 (Windows NT 10.0; Win64; x64) AppleWebKit/537.36 (KHTML, like Gecko) Chrome/87.0.4280.141 Safari/537.36" etag="vanWgXiuwUg-edd9YTw6" version="14.1.3" type="github">
  <diagram id="WI9T0HZ2pTsCkuznbFz-" name="Page-1">
    <mxGraphModel dx="868" dy="450" grid="1" gridSize="10" guides="1" tooltips="1" connect="1" arrows="1" fold="1" page="1" pageScale="1" pageWidth="1169" pageHeight="827" math="0" shadow="0">
      <root>
        <mxCell id="0" />
        <mxCell id="1" parent="0" />
        <mxCell id="JsJ6TileXqu1xMjFfcnR-5" value="&lt;font style=&quot;font-size: 17px&quot;&gt;企业申请人&lt;/font&gt;" style="verticalLabelPosition=bottom;html=1;verticalAlign=top;align=center;strokeColor=none;fillColor=#00BEF2;shape=mxgraph.azure.user;" vertex="1" parent="1">
          <mxGeometry x="60" y="60" width="47.5" height="50" as="geometry" />
        </mxCell>
        <mxCell id="JsJ6TileXqu1xMjFfcnR-8" value="电子营业执照全流程系统" style="verticalLabelPosition=bottom;html=1;verticalAlign=top;align=center;strokeColor=none;fillColor=#00BEF2;shape=mxgraph.azure.website_generic;pointerEvents=1;" vertex="1" parent="1">
          <mxGeometry x="280" y="60" width="90" height="80" as="geometry" />
        </mxCell>
        <mxCell id="JsJ6TileXqu1xMjFfcnR-13" value="开办企业申请" style="text;html=1;resizable=0;autosize=1;align=center;verticalAlign=middle;points=[];fillColor=none;strokeColor=none;rounded=0;fontSize=16;" vertex="1" parent="1">
          <mxGeometry x="140" y="60" width="110" height="20" as="geometry" />
        </mxCell>
        <mxCell id="JsJ6TileXqu1xMjFfcnR-14" value="" style="shape=singleArrow;whiteSpace=wrap;html=1;fontSize=20;" vertex="1" parent="1">
          <mxGeometry x="145" y="90" width="100" height="35" as="geometry" />
        </mxCell>
        <mxCell id="JsJ6TileXqu1xMjFfcnR-15" value="" style="shape=singleArrow;direction=west;whiteSpace=wrap;html=1;fontSize=20;" vertex="1" parent="1">
          <mxGeometry x="410" y="110" width="140" height="30" as="geometry" />
        </mxCell>
        <mxCell id="JsJ6TileXqu1xMjFfcnR-16" value="" style="shape=singleArrow;whiteSpace=wrap;html=1;fontSize=20;" vertex="1" parent="1">
          <mxGeometry x="410" y="70" width="140" height="30" as="geometry" />
        </mxCell>
        <mxCell id="JsJ6TileXqu1xMjFfcnR-17" value="推送印章制作申请" style="text;html=1;resizable=0;autosize=1;align=center;verticalAlign=middle;points=[];fillColor=none;strokeColor=none;rounded=0;fontSize=16;" vertex="1" parent="1">
          <mxGeometry x="390" y="50" width="140" height="20" as="geometry" />
        </mxCell>
        <mxCell id="JsJ6TileXqu1xMjFfcnR-18" value="返回制作信息(带章模)" style="text;html=1;resizable=0;autosize=1;align=center;verticalAlign=middle;points=[];fillColor=none;strokeColor=none;rounded=0;fontSize=16;" vertex="1" parent="1">
          <mxGeometry x="400" y="140" width="170" height="20" as="geometry" />
        </mxCell>
        <mxCell id="JsJ6TileXqu1xMjFfcnR-22" value="" style="endArrow=none;dashed=1;html=1;fontSize=16;" edge="1" parent="1">
          <mxGeometry width="50" height="50" relative="1" as="geometry">
            <mxPoint x="820" y="380" as="sourcePoint" />
            <mxPoint x="820" y="10" as="targetPoint" />
          </mxGeometry>
        </mxCell>
        <mxCell id="JsJ6TileXqu1xMjFfcnR-23" value="电子印章系统" style="verticalLabelPosition=bottom;html=1;verticalAlign=top;align=center;strokeColor=none;fillColor=#00BEF2;shape=mxgraph.azure.server_rack;fontSize=16;" vertex="1" parent="1">
          <mxGeometry x="885" y="250" width="70" height="70" as="geometry" />
        </mxCell>
        <mxCell id="JsJ6TileXqu1xMjFfcnR-24" value="电子政务外网" style="text;html=1;resizable=0;autosize=1;align=center;verticalAlign=middle;points=[];fillColor=none;strokeColor=none;rounded=0;fontSize=24;" vertex="1" parent="1">
          <mxGeometry x="650" y="5" width="160" height="30" as="geometry" />
        </mxCell>
        <mxCell id="JsJ6TileXqu1xMjFfcnR-25" value="公安内网" style="text;html=1;resizable=0;autosize=1;align=center;verticalAlign=middle;points=[];fillColor=none;strokeColor=none;rounded=0;fontSize=24;" vertex="1" parent="1">
          <mxGeometry x="840" y="5" width="110" height="30" as="geometry" />
        </mxCell>
        <mxCell id="JsJ6TileXqu1xMjFfcnR-26" value="&lt;span style=&quot;font-size: 16px&quot;&gt;电子印章&lt;/span&gt;&lt;br style=&quot;font-size: 16px&quot;&gt;&lt;span style=&quot;font-size: 16px&quot;&gt;前置客户端&lt;/span&gt;" style="aspect=fixed;pointerEvents=1;shadow=0;dashed=0;html=1;strokeColor=none;labelPosition=center;verticalLabelPosition=bottom;verticalAlign=top;align=center;fillColor=#00188D;shape=mxgraph.mscae.enterprise.direct_access_feature;fontSize=24;" vertex="1" parent="1">
          <mxGeometry x="620" y="250" width="50" height="44" as="geometry" />
        </mxCell>
        <mxCell id="JsJ6TileXqu1xMjFfcnR-27" value="&lt;span style=&quot;font-size: 16px&quot;&gt;电子印章&lt;/span&gt;&lt;br style=&quot;font-size: 16px&quot;&gt;&lt;span style=&quot;font-size: 16px&quot;&gt;前置服务器&lt;/span&gt;" style="aspect=fixed;pointerEvents=1;shadow=0;dashed=0;html=1;strokeColor=none;labelPosition=center;verticalLabelPosition=bottom;verticalAlign=top;align=center;fillColor=#00188D;shape=mxgraph.azure.server_rack;fontSize=24;" vertex="1" parent="1">
          <mxGeometry x="630" y="60" width="60" height="60" as="geometry" />
        </mxCell>
        <mxCell id="JsJ6TileXqu1xMjFfcnR-31" value="" style="endArrow=classic;html=1;fontSize=24;" edge="1" parent="1">
          <mxGeometry width="50" height="50" relative="1" as="geometry">
            <mxPoint x="670" y="280" as="sourcePoint" />
            <mxPoint x="880" y="280" as="targetPoint" />
          </mxGeometry>
        </mxCell>
        <mxCell id="JsJ6TileXqu1xMjFfcnR-32" value="VPN专线" style="text;html=1;resizable=0;autosize=1;align=center;verticalAlign=middle;points=[];fillColor=none;strokeColor=none;rounded=0;fontSize=16;" vertex="1" parent="1">
          <mxGeometry x="730" y="250" width="80" height="20" as="geometry" />
        </mxCell>
      </root>
    </mxGraphModel>
  </diagram>
</mxfile>
